<?xml version="1.0" standalone="no"?><!DOCTYPE svg PUBLIC "-//W3C//DTD SVG 1.1//EN" "http://www.w3.org/Graphics/SVG/1.1/DTD/svg11.dtd"><svg class="icon" width="200px" height="200.00px" viewBox="0 0 1024 1024" version="1.1" xmlns="http://www.w3.org/2000/svg"><path fill="#1296db" d="M711.111111 551.822222c68.266667-56.888889 113.777778-142.222222 113.777778-238.933333C824.888889 142.222222 682.666667 0 512 0S199.111111 142.222222 199.111111 312.888889c0 96.711111 45.511111 182.044444 113.777778 238.933333-164.977778 68.266667-284.444444 221.866667-307.2 409.6-5.688889 28.444444 17.066667 56.888889 51.2 62.577778h5.688889c28.444444 0 51.2-22.755556 56.888889-51.2C142.222222 773.688889 312.888889 625.777778 512 625.777778c51.2 0 102.4 11.377778 147.911111 28.444444 28.444444 11.377778 62.577778 0 73.955556-28.444444 11.377778-28.444444 0-56.888889-22.755556-73.955556z m-398.222222-238.933333C312.888889 204.8 403.911111 113.777778 512 113.777778s199.111111 91.022222 199.111111 199.111111S620.088889 512 512 512 312.888889 420.977778 312.888889 312.888889zM967.111111 853.333333h-341.333333c-34.133333 0-56.888889-22.755556-56.888889-56.888889s22.755556-56.888889 56.888889-56.888888h341.333333c34.133333 0 56.888889 22.755556 56.888889 56.888888s-22.755556 56.888889-56.888889 56.888889zM967.111111 682.666667h-113.777778c-34.133333 0-56.888889-22.755556-56.888889-56.888889s22.755556-56.888889 56.888889-56.888889h113.777778c34.133333 0 56.888889 22.755556 56.888889 56.888889s-22.755556 56.888889-56.888889 56.888889zM967.111111 1024h-227.555555c-34.133333 0-56.888889-22.755556-56.888889-56.888889s22.755556-56.888889 56.888889-56.888889h227.555555c34.133333 0 56.888889 22.755556 56.888889 56.888889s-22.755556 56.888889-56.888889 56.888889z" /></svg>