<?xml version="1.0" standalone="no"?><!DOCTYPE svg PUBLIC "-//W3C//DTD SVG 1.1//EN" "http://www.w3.org/Graphics/SVG/1.1/DTD/svg11.dtd"><svg class="icon" width="200px" height="200.00px" viewBox="0 0 1024 1024" version="1.1" xmlns="http://www.w3.org/2000/svg"><path d="M108.449 925.293c-57.084 0-102.912-48.298-102.912-106.891v-533.903c0-58.726 45.828-106.891 102.912-106.891h804.768c57.084 0 102.912 48.298 102.912 106.891v533.081c0 58.726-45.828 106.891-102.912 106.891h-804.768v0.823zM108.449 220.144c-34.578 0-61.884 28.956-61.884 64.354v533.081c0 35.399 28.129 64.354 61.884 64.354h804.768c34.578 0 61.884-28.956 61.884-64.354v-533.081c0-35.399-28.129-64.354-61.884-64.354h-804.768z"  /><path d="M541.772 391.39c-12.899 0-23.326-10.43-23.326-24.151s10.43-24.151 23.326-24.151h329.591c12.899 0 23.326 10.43 23.326 24.151s-10.43 24.151-23.326 24.151h-329.591zM541.772 511.177c-12.899 0-23.326-10.43-23.326-24.151s10.43-24.151 23.326-24.151h329.591c12.899 0 23.326 10.43 23.326 24.151s-10.43 24.151-23.326 24.151h-329.591zM541.772 639.063c-12.899 0-23.326-10.43-23.326-24.151s10.43-24.151 23.326-24.151h278.135c12.899 0 23.326 10.43 23.326 24.151s-10.43 24.151-23.326 24.151h-278.135zM56.173 888.244c-2.47 0-4.802 0-7.27-0.823-12.899-3.979-20.033-18.524-16.055-32.106 23.326-78.761 77.94-143.116 148.741-176.871l16.055-8.096-13.722-12.073c-40.203-34.578-63.532-86.036-63.532-139.961 0-100.442 78.761-181.673 174.4-181.673 96.462 0 174.4 81.233 174.4 181.673 0 53.924-23.326 105.382-63.532 139.961l-13.722 12.073 16.055 8.096c68.333 32.106 133.51 112.516 158.347 195.395 16.055 53.101-16.877 36.226-1.644 16.055-3.157 4.802-16.877-5.628-32.106-5.628-12.899 0-19.348 24.973-19.348 22.503-31.421-104.555-121.436-204.176-218.722-204.176-99.755 0-187.301 67.513-217.074 167.266-1.235 11.116-10.838 18.386-21.267 18.386zM296.572 387.409c-69.979 0-127.063 58.726-127.063 131.039s57.084 131.039 127.063 131.039 127.063-58.726 127.063-131.039c-0.823-72.311-57.22-131.039-127.063-131.039z"  /></svg>