<?xml version="1.0" standalone="no"?><!DOCTYPE svg PUBLIC "-//W3C//DTD SVG 1.1//EN" "http://www.w3.org/Graphics/SVG/1.1/DTD/svg11.dtd"><svg class="icon" width="200px" height="200.00px" viewBox="0 0 1024 1024" version="1.1" xmlns="http://www.w3.org/2000/svg"><path d="M523.776 430.613333l-152.938667 88.448 153.28 88.618667 152.746667-88.789333-153.088-88.277334z m-165.76 108.458667l0.512 177.066667 153.792 87.402666-0.853333-176.874666-153.450667-87.594667z m329.984 0l-153.450667 87.594667-0.853333 176.704 153.813333-87.402667 0.490667-176.896z m131.392 205.802667l-68.266667-40.896 39.68-8.725334-5.802666-26.176-67.242667 14.890667h-0.170667l-13.674666 22.933333 101.610666 60.885334 13.866667-22.912z m-142.848 7.68l68.074667 40.896-39.68 8.896 5.824 26.005333 67.221333-14.72h0.170667l13.696-22.912-101.632-61.077333-13.674667 22.933333zM481.493333 424.832h26.88v-118.549333h-26.88v79.530666l-27.882666-29.589333-19.328 18.474667 47.210666 50.133333z m53.546667-118.549333v118.549333h26.688v-79.573333l27.882667 29.610666 19.498666-18.474666-47.36-49.941334v-0.170666H535.04z m-190.570667 401.834666l-13.504-23.104-68.608 40.213334 11.306667-39.018667-25.664-7.36-19.157333 66.218667h-0.170667l13.504 23.082666 102.293333-60.032z m-88.768 82.965334l13.504 23.082666 68.608-40.192-11.306666 38.997334 25.664 7.36 19.328-66.026667v-0.170667l-13.504-23.104-102.293334 60.053334z m621.824-45.333334a82.496 82.496 0 0 0-82.453333 82.453334 82.496 82.496 0 0 0 82.453333 82.453333A82.496 82.496 0 0 0 960 828.16a82.496 82.496 0 0 0-82.453333-82.453333z m0 123.157334a40.533333 40.533333 0 1 1 0-81.066667 40.533333 40.533333 0 1 1 0 81.066667zM521.898667 292.906667a82.496 82.496 0 0 0 82.453333-82.453334A82.496 82.496 0 0 0 521.898667 128a82.389333 82.389333 0 0 0-82.453334 82.453333 82.389333 82.389333 0 0 0 82.453334 82.453334z m0-122.986667a40.533333 40.533333 0 1 1 0 81.066667 40.533333 40.533333 0 1 1 0-81.066667zM167.786667 749.141333A82.496 82.496 0 0 0 85.333333 831.594667a82.496 82.496 0 0 0 82.453334 82.453333 82.496 82.496 0 0 0 82.453333-82.453333 82.282667 82.282667 0 0 0-82.453333-82.453334z m0 123.008a40.533333 40.533333 0 1 1 0-81.088 40.533333 40.533333 0 1 1 0 81.066667z"  /></svg>