<?xml version="1.0" standalone="no"?><!DOCTYPE svg PUBLIC "-//W3C//DTD SVG 1.1//EN" "http://www.w3.org/Graphics/SVG/1.1/DTD/svg11.dtd"><svg t="1552958804126" class="icon" style="" viewBox="0 0 1024 1024" version="1.1" xmlns="http://www.w3.org/2000/svg" p-id="5230" xmlns:xlink="http://www.w3.org/1999/xlink" width="200" height="200"><defs><style type="text/css"></style></defs><path d="M71.576175 627.248837l0.698918 0 111.047142 0L183.322236 504.835833c0-10.904351 5.222955-21.066805 13.266142-27.01119L196.588377 348.309894c0-11.124362 9.004071-19.647479 19.887956-19.647479 11.124362 0 20.36891 8.523117 20.36891 19.647479l0 129.514749c7.80271 5.944386 13.004175 16.10684 13.004175 27.01119L249.849418 627.248837l443.530582 0L693.38 504.835833c0-10.904351 5.441942-21.066805 13.244652-27.01119L706.624652 348.309894c0-11.124362 9.004071-19.647479 20.13048-19.647479 10.881838 0 20.126386 8.523117 20.126386 19.647479l0 129.514749c8.043187 5.944386 13.025665 16.10684 13.025665 27.01119L759.907183 627.248837l111.986537 0c18.489096 0 33.637098 15.386432 33.637098 33.373085l0 0.74292 0 241.74074c0 18.22713-15.148002 33.635051-33.637098 33.635051l-0.456395 0L71.576175 936.740634c-18.489096 0-33.394574-15.407921-33.394574-33.635051l0-0.458441L38.181601 660.621922C38.181601 642.635269 53.086056 627.248837 71.576175 627.248837L71.576175 627.248837zM692.661639 125.495202 692.661639 125.495202c69.14787 0 131.894959 27.931143 177.135326 73.390497 45.218878 45.459355 73.390497 107.986433 73.390497 176.874383 0 11.145851 8.763594 19.669992 20.128433 19.669992 10.883885 0 19.647479-8.523117 19.647479-19.669992 0-79.793324-31.972179-152.943344-84.776825-205.26499-52.562123-52.583612-125.252679-84.798315-205.52491-84.798315-10.885931 0-19.649526 8.523117-19.649526 19.669992C673.01109 116.248607 681.775708 125.495202 692.661639 125.495202L692.661639 125.495202zM692.661639 243.883543 692.661639 243.883543c36.71725 0 69.628824 14.666024 93.54042 38.35761l1.418302 1.442862c23.210631 23.669072 37.175691 56.343239 37.175691 92.076068 0 11.145851 8.982582 19.669992 20.128433 19.669992 10.883885 0 19.647479-8.523117 19.647479-19.669992 0-46.617737-18.467607-89.497337-49.021483-120.051213l-0.937348-1.879813c-31.495318-30.771841-74.353428-49.742914-121.952516-49.742914-10.885931 0-19.649526 8.786107-19.649526 19.669992C673.01109 234.880495 681.775708 243.883543 692.661639 243.883543L692.661639 243.883543zM261.695211 781.656533 261.695211 781.656533c0-43.339064-66.549695-43.339064-66.549695 0 0 18.686594 14.468526 33.592073 33.154098 33.592073C246.789733 815.247582 261.695211 800.342104 261.695211 781.656533L261.695211 781.656533zM504.900302 781.656533 504.900302 781.656533c0-43.339064-66.549695-43.339064-66.549695 0 0 18.686594 14.926968 33.592073 33.154098 33.592073C490.192322 815.247582 504.900302 800.342104 504.900302 781.656533L504.900302 781.656533zM626.590851 781.656533 626.590851 781.656533c0-43.339064-66.76766-43.339064-66.76766 0 0 18.686594 14.926968 33.592073 33.615609 33.592073C611.92585 815.247582 626.590851 800.342104 626.590851 781.656533L626.590851 781.656533zM748.32438 781.656533 748.32438 781.656533c0-43.339064-66.549695-43.339064-66.549695 0 0 18.686594 14.926968 33.592073 33.154098 33.592073C733.397413 815.247582 748.32438 800.342104 748.32438 781.656533L748.32438 781.656533zM838.762135 694.016497 838.762135 694.016497c-244.822938 0-489.228367 0-733.593887 0l0 175.934988 733.593887 0L838.762135 694.016497 838.762135 694.016497z" p-id="5231"></path></svg>