<?xml version="1.0" standalone="no"?><!DOCTYPE svg PUBLIC "-//W3C//DTD SVG 1.1//EN" "http://www.w3.org/Graphics/SVG/1.1/DTD/svg11.dtd"><svg class="icon" width="200px" height="200.00px" viewBox="0 0 1024 1024" version="1.1" xmlns="http://www.w3.org/2000/svg"><path fill="" d="M703.99934 0a319.9997 319.9997 0 0 0-319.9997 319.9997 315.519704 315.519704 0 0 0 22.719979 116.159891L18.239983 824.959227A51.199952 51.199952 0 0 0 0 863.99919v95.99991a63.99994 63.99994 0 0 0 63.99994 63.99994h95.99991a51.519952 51.519952 0 0 0 39.359963-17.919983L245.11977 959.9991H319.9997a63.99994 63.99994 0 0 0 63.99994-63.99994v-63.99994h63.99994a63.99994 63.99994 0 0 0 63.99994-63.99994v-74.87993l75.839929-75.839929A315.519704 315.519704 0 0 0 703.99934 639.9994a319.9997 319.9997 0 1 0 0-639.9994z m0 575.99946a253.439762 253.439762 0 0 1-127.99988-36.159966l-10.87999 10.87999-37.119965 36.159966-61.119943 61.119943a63.99994 63.99994 0 0 0-18.879982 45.119957V767.99928h-63.99994a63.99994 63.99994 0 0 0-63.99994 63.99994v63.99994H245.11977a63.99994 63.99994 0 0 0-45.119957 18.879982L154.559855 959.9991H63.99994v-91.199914l373.43965-372.479651L484.479546 447.99958A253.439762 253.439762 0 0 1 447.99958 319.9997a255.99976 255.99976 0 1 1 255.99976 255.99976z"  /><path fill="" d="M890.239165 263.679753a568.639467 568.639467 0 0 0-129.599878-129.599879 31.99997 31.99997 0 0 0-28.159974-4.159996 141.439867 141.439867 0 0 0-90.559915 90.559915 31.99997 31.99997 0 0 0-1.599998 10.239991 31.99997 31.99997 0 0 0 5.759994 17.919983 567.999468 567.999468 0 0 0 129.599879 129.599878 31.99997 31.99997 0 0 0 28.159973 4.159997 141.439867 141.439867 0 0 0 90.559916-90.559916A31.99997 31.99997 0 0 0 895.99916 281.599736a31.99997 31.99997 0 0 0-5.759995-17.919983z m-95.99991 88.639917A549.439485 549.439485 0 0 1 671.99937 231.039783 110.719896 110.719896 0 0 1 741.759305 159.99985 536.319497 536.319497 0 0 1 863.99919 281.919736 110.719896 110.719896 0 0 1 794.239255 351.99967z"  /></svg>