<?xml version="1.0" standalone="no"?><!DOCTYPE svg PUBLIC "-//W3C//DTD SVG 1.1//EN" "http://www.w3.org/Graphics/SVG/1.1/DTD/svg11.dtd"><svg class="icon" width="200px" height="200.00px" viewBox="0 0 1024 1024" version="1.1" xmlns="http://www.w3.org/2000/svg"><path fill="#1296db" d="M780.16 1024H243.84a170.88 170.88 0 0 1-170.688-170.688V536.384A170.88 170.88 0 0 1 243.84 365.696h536.384a170.816 170.816 0 0 1 170.624 170.688v316.928A170.88 170.88 0 0 1 780.16 1024zM243.84 414.464a121.984 121.984 0 0 0-121.92 121.92v316.928c0 67.264 54.656 121.984 121.92 121.984h536.384c67.2 0 121.856-54.72 121.856-121.984V536.384a121.984 121.984 0 0 0-121.856-121.92H243.84z"  /><path fill="#1296db" d="M243.84 414.464a24.32 24.32 0 0 1-24.384-24.384V268.16C219.456 118.72 343.68 1.472 502.912 0h3.008c156.608 1.472 274.304 116.288 274.304 268.16v48.768a24.32 24.32 0 0 1-48.768 0V268.16c0-124.608-97.536-218.688-227.072-219.456C371.84 49.472 268.16 145.6 268.16 268.16v121.92a24.32 24.32 0 0 1-24.32 24.384zM512 804.544a146.432 146.432 0 0 1-146.304-146.24A146.496 146.496 0 0 1 512 512a146.496 146.496 0 0 1 146.304 146.304A146.496 146.496 0 0 1 512 804.544z m0-243.776c-53.76 0-97.536 43.776-97.536 97.536S458.176 755.904 512 755.904c53.76 0 97.536-43.776 97.536-97.536S565.696 560.768 512 560.768z"  /><path fill="#1296db" d="M512 902.144a24.448 24.448 0 0 1-24.384-24.448v-73.152c0-13.44 10.944-24.448 24.384-24.448s24.384 11.008 24.384 24.448v73.152a24.448 24.448 0 0 1-24.384 24.448z"  /></svg>