<?xml version="1.0" standalone="no"?><!DOCTYPE svg PUBLIC "-//W3C//DTD SVG 1.1//EN" "http://www.w3.org/Graphics/SVG/1.1/DTD/svg11.dtd"><svg t="1552958746468" class="icon" style="" viewBox="0 0 1024 1024" version="1.1" xmlns="http://www.w3.org/2000/svg" p-id="4429" xmlns:xlink="http://www.w3.org/1999/xlink" width="200" height="200"><defs><style type="text/css"></style></defs><path d="M682.424 873.637c0 32.498-6.852 38.834-39.99 38.834H184.412c-33.137 0-39.988-6.336-39.988-38.834V135.305c0-32.5 6.852-38.834 39.988-38.834h458.022c33.139 0 39.99 6.334 39.99 38.834v738.332z" fill="#FFFFFF" p-id="4430"></path><path d="M642.434 922.471H184.412c-17.878 0-30.699-1.679-39.362-10.032-8.819-8.505-10.626-21.662-10.626-38.802V135.305c0-17.14 1.807-30.298 10.626-38.803 8.662-8.353 21.483-10.031 39.362-10.031h458.022c17.879 0 30.701 1.678 39.363 10.031 8.82 8.504 10.627 21.663 10.627 38.803v738.332c0 17.14-1.807 30.297-10.627 38.802-8.662 8.354-21.484 10.032-39.363 10.032z m-458.022-816c-14.445 0-22.303 1.366-25.479 4.428-3.119 3.007-4.509 10.534-4.509 24.406v738.332c0 13.871 1.391 21.398 4.509 24.405 3.176 3.063 11.034 4.429 25.479 4.429h458.022c14.446 0 22.305-1.366 25.48-4.429 3.119-3.007 4.51-10.534 4.51-24.405V135.305c0-13.872-1.391-21.398-4.51-24.406-3.176-3.063-11.034-4.428-25.48-4.428H184.412z" fill="#323333" p-id="4431"></path><path d="M912.145 875.156c0 32.498-6.852 38.834-39.988 38.834H754.289c-33.137 0-39.988-6.336-39.988-38.834V505.33c0-32.5 6.852-38.834 39.988-38.834h117.867c33.137 0 39.988 6.334 39.988 38.834v369.826z" fill="#FFFFFF" p-id="4432"></path><path d="M872.156 923.99H754.289c-17.879 0-30.699-1.678-39.362-10.032-8.819-8.505-10.626-21.662-10.626-38.802V505.33c0-17.14 1.807-30.298 10.626-38.803 8.663-8.353 21.483-10.031 39.362-10.031h117.867c17.879 0 30.699 1.678 39.362 10.031 8.819 8.505 10.626 21.663 10.626 38.803v369.827c0 17.14-1.807 30.297-10.626 38.802-8.663 8.354-21.483 10.031-39.362 10.031zM754.289 476.496c-14.445 0-22.304 1.366-25.479 4.428-3.119 3.008-4.51 10.535-4.51 24.406v369.827c0 13.871 1.391 21.398 4.51 24.405 3.176 3.063 11.033 4.429 25.479 4.429h117.867c14.445 0 22.303-1.366 25.479-4.429 3.119-3.007 4.51-10.534 4.51-24.405V505.33c0-13.872-1.391-21.398-4.51-24.406-3.175-3.062-11.033-4.428-25.479-4.428H754.289z" fill="#323333" p-id="4433"></path><path d="M843.809 615.834h-61.172c-16.882 0-28.891-1.491-36.585-8.911-7.805-7.525-9.403-19.804-9.403-35.923v-29.67c0-16.12 1.599-28.398 9.403-35.924 7.694-7.42 19.703-8.911 36.585-8.911h61.172c16.882 0 28.891 1.491 36.586 8.911 7.805 7.526 9.404 19.804 9.404 35.924V571c0 16.119-1.6 28.396-9.404 35.923-7.696 7.421-19.705 8.911-36.586 8.911z m-61.172-107.338c-29.858 0-33.988 3.989-33.988 32.834V571c0 28.845 4.13 32.834 33.988 32.834h61.172c29.86 0 33.99-3.989 33.99-32.834v-29.67c0-28.845-4.13-32.834-33.99-32.834h-61.172z" fill="#323333" p-id="4434"></path><path d="M863.398 566.711c0 23.105-4.871 27.609-28.43 27.609h-43.492c-23.559 0-28.43-4.504-28.43-27.609v-21.094c0-23.105 4.871-27.609 28.43-27.609h43.492c23.559 0 28.43 4.504 28.43 27.609v21.094z" fill="#3D71B7" p-id="4435"></path><path d="M602.375 377.346c0 32.498-2.846 34.832-35.982 34.832H260.455c-33.138 0-35.984-2.334-35.984-34.832V182.333c0-32.5 2.847-34.832 35.984-34.832h305.938c33.137 0 35.982 2.332 35.982 34.832v195.013z" fill="#FFFFFF" p-id="4436"></path><path d="M566.393 422.178H260.455c-18.025 0-29.533-0.539-37.333-8.005-8.049-7.704-8.651-19.583-8.651-36.827V182.333c0-17.245 0.602-29.125 8.651-36.828 7.8-7.465 19.308-8.004 37.333-8.004h305.938c18.024 0 29.532 0.539 37.332 8.004 8.048 7.703 8.65 19.583 8.65 36.828v195.013c0 17.244-0.603 29.123-8.65 36.827-7.8 7.466-19.308 8.005-37.332 8.005zM260.455 157.501c-7.319 0-20.941 0-23.504 2.453-2.48 2.373-2.48 15.885-2.48 22.379v195.013c0 6.493 0 20.005 2.48 22.378 2.563 2.454 16.186 2.454 23.504 2.454h305.938c7.318 0 20.939 0 23.503-2.453 2.479-2.374 2.479-15.885 2.479-22.379V182.333c0-6.494 0-20.006-2.479-22.379-2.563-2.453-16.185-2.453-23.503-2.453H260.455z" fill="#323333" p-id="4437"></path><path d="M564.529 335.138c0 25.988-2.277 27.855-28.777 27.855H291.094c-26.5 0-28.777-1.867-28.777-27.855V193.36c0-25.99 2.277-27.855 28.777-27.855h244.658c26.5 0 28.777 1.865 28.777 27.855v141.778z" fill="#3D71B7" p-id="4438"></path><path d="M815.049 412.305c0-12.426-10.074-22.5-22.5-22.5-12.26 0-22.221 9.806-22.486 22l-0.055 76.556c-0.109 11.15-8.699 20.257-19.633 21.194H414.176c-12.428 0-22.5 10.073-22.5 22.5l0.002 0.125-0.002 0.125v170c0 12.426 10.072 22.5 22.5 22.5 12.426 0 22.5-10.074 22.5-22.5V575.463c0.228-11.584 9.672-20.908 21.312-20.908h334.497c12.428 0 22.5-10.074 22.5-22.5 0-0.412-0.012-0.82-0.033-1.228 0.033-0.504 0.057-1.01 0.057-1.522l0.04-117z" fill="#FFFFFF" p-id="4439"></path><path d="M414.176 730.805c-15.715 0-28.5-12.785-28.5-28.5v-170.25c0-15.715 12.785-28.5 28.5-28.5h335.921c7.869-0.792 13.832-7.308 13.91-15.253l0.056-76.628c0.335-15.367 13.113-27.869 28.485-27.869 15.715 0 28.5 12.785 28.5 28.5l-0.041 117.002c0 0.525-0.019 1.046-0.048 1.564 0.016 0.393 0.024 0.787 0.024 1.184 0 15.715-12.785 28.5-28.5 28.5H457.988c-8.263 0-15.121 6.712-15.312 14.974v126.776c0 15.715-12.785 28.5-28.5 28.5z m0-215.25c-9.098 0-16.5 7.402-16.5 16.5l0.002 0.197-0.003 0.135 0.001 169.918c0 9.098 7.402 16.5 16.5 16.5s16.5-7.402 16.5-16.5l0.001-126.96c0.291-14.771 12.542-26.79 27.311-26.79h334.497c9.098 0 16.5-7.402 16.5-16.5 0-0.306-0.009-0.609-0.024-0.912l-0.02-0.354 0.023-0.355c0.025-0.373 0.044-0.748 0.044-1.128l0.041-117c0-9.098-7.402-16.5-16.5-16.5-8.879 0-16.263 7.205-16.486 16.073l-0.055 76.487c-0.14 14.297-10.939 25.953-25.121 27.168l-0.512 0.021H414.176z" fill="#772E1D" p-id="4440"></path><path d="M413.424 738.049m-35.998 0a35.998 35.998 0 1 0 71.996 0 35.998 35.998 0 1 0-71.996 0Z" fill="#D53260" p-id="4441"></path><path d="M413.424 780.047c-23.158 0-41.998-18.84-41.998-41.998s18.84-41.998 41.998-41.998c23.157 0 41.997 18.84 41.997 41.998s-18.839 41.998-41.997 41.998z m0-71.996c-16.541 0-29.998 13.457-29.998 29.998s13.457 29.998 29.998 29.998 29.997-13.457 29.997-29.998-13.456-29.998-29.997-29.998z" fill="#323333" p-id="4442"></path><path d="M816.289 880.053c5.336 0 9.686-4.146 10.01-9.379 0.014-0.117 0.031-0.232 0.031-0.352V658.236c0-0.047-0.01-0.092-0.012-0.139-0.133-5.408-4.566-9.754-10.029-9.754-5.461 0-9.896 4.346-10.027 9.754-0.002 0.047-0.014 0.092-0.014 0.139v212.086c0 0.119 0.02 0.234 0.033 0.352 0.323 5.232 4.674 9.379 10.008 9.379z" fill="#D53260" p-id="4443"></path></svg>