<?xml version="1.0" standalone="no"?><!DOCTYPE svg PUBLIC "-//W3C//DTD SVG 1.1//EN" "http://www.w3.org/Graphics/SVG/1.1/DTD/svg11.dtd"><svg t="1552958701975" class="icon" style="" viewBox="0 0 1024 1024" version="1.1" xmlns="http://www.w3.org/2000/svg" p-id="4310" xmlns:xlink="http://www.w3.org/1999/xlink" width="200" height="200"><defs><style type="text/css"></style></defs><path d="M668.884679 78.692315c0-21.697881-17.498291-39.196172-39.096182-39.296162H156.734694c-21.597891 0.09999-39.096182 17.598281-39.096182 39.296162v866.61537c0 21.697881 17.598281 39.296162 39.096182 39.296162h473.053803c21.597891-0.09999 39.096182-17.598281 39.096182-39.296162m0-39.496143h39.396153v39.496143c0 43.395762-35.096573 78.592325-78.492335 78.692315H156.734694c-43.395762 0-78.592325-35.296553-78.492335-78.692315V78.692315C78.242359 35.296553 113.438922 0 156.734694 0h473.053803c43.395762 0 78.492335 35.196563 78.492335 78.692315v709.33073h-39.396153m39.396153 0" fill="#7F8080" p-id="4311"></path><path d="M432.607753 157.584611h157.484621V196.980764H432.607753zM905.161605 866.415389v-39.396153H491.302021c-5.199492 0-10.199004 2.099795-13.798652 5.799434-3.599648 3.699639-5.599453 8.69915-5.499463 13.898643 0 10.998926 8.59916 19.698076 19.298115 19.698076h413.859584z m-472.553852-19.698076c0-32.596817 26.097451-59.094229 58.694268-59.094229h453.255737v118.188458H491.302021c-15.598477 0-30.597012-6.299385-41.595938-17.298311-10.998926-11.098916-17.19832-26.097451-17.09833-41.795918zM235.72698 354.465384v315.069232h315.069231V354.465384H235.72698z m-39.396153-39.396152h393.761547V708.930768H196.330827V315.069232z m0 0" fill="#7F8080" p-id="4312"></path><path d="M432.607753 590.74231h-78.792305v78.792306h-39.396153v-78.792306h-78.792305v-39.396152h78.792305v-78.792306h-78.792305v-39.396153h78.792305v-78.792305h39.396153v78.792305h78.792305v-78.792305H472.003906v78.792305h118.188458v39.396153H472.003906v78.792306h118.188458v39.396152H472.003906v78.792306h-39.396153v-78.792306z m0-39.396152v-78.792306h-78.792305v78.792306h78.792305z m0 0" fill="#7F8080" p-id="4313"></path></svg>