<?xml version="1.0" standalone="no"?><!DOCTYPE svg PUBLIC "-//W3C//DTD SVG 1.1//EN" "http://www.w3.org/Graphics/SVG/1.1/DTD/svg11.dtd"><svg t="1552958643541" class="icon" style="" viewBox="0 0 1024 1024" version="1.1" xmlns="http://www.w3.org/2000/svg" p-id="4194" xmlns:xlink="http://www.w3.org/1999/xlink" width="200" height="200"><defs><style type="text/css"></style></defs><path d="M672 684.8H145.066667c-29.866667 0-55.466667-25.6-55.466667-55.466667V155.733333c0-29.866667 25.6-55.466667 55.466667-55.466666h723.2c29.866667 0 55.466667 25.6 55.466666 55.466666v396.8h-32V155.733333c0-12.8-10.666667-23.466667-23.466666-23.466666H145.066667c-12.8 0-23.466667 10.666667-23.466667 23.466666v473.6c0 12.8 10.666667 23.466667 23.466667 23.466667h526.933333v32z" p-id="4195"></path><path d="M667.733333 902.4l-629.333333-4.266667c-14.933333 0-25.6-6.4-32-14.933333-4.266667-6.4-8.533333-19.2 0-36.266667l70.4-151.466666c8.533333-19.2 21.333333-42.666667 61.866667-42.666667v32c-21.333333 0-25.6 8.533333-34.133334 25.6l-70.4 151.466667c-2.133333 4.266667-2.133333 6.4-2.133333 6.4h6.4l629.333333 2.133333v32z" p-id="4196"></path><path d="M966.4 949.333333H716.8c-32 0-57.6-25.6-57.6-57.6v-206.933333c0-32 25.6-57.6 57.6-57.6h249.6c32 0 57.6 25.6 57.6 57.6v206.933333c0 29.866667-25.6 57.6-57.6 57.6zM716.8 657.066667c-14.933333 0-25.6 12.8-25.6 25.6v206.933333c0 14.933333 12.8 25.6 25.6 25.6h249.6c14.933333 0 25.6-12.8 25.6-25.6V682.666667c0-14.933333-12.8-25.6-25.6-25.6H716.8z" p-id="4197"></path><path d="M940.8 644.266667h-32v-42.666667c0-38.4-32-70.4-70.4-70.4S768 563.2 768 601.6v42.666667h-32v-42.666667c0-55.466667 44.8-100.266667 100.266667-100.266667s100.266667 44.8 100.266666 100.266667v42.666667z" p-id="4198"></path><path d="M840.533333 787.2m-42.666666 0a42.666667 42.666667 0 1 0 85.333333 0 42.666667 42.666667 0 1 0-85.333333 0Z" p-id="4199"></path><path d="M580.266667 337.066667H243.2c-12.8 0-25.6-10.666667-25.6-25.6 0-12.8 10.666667-25.6 25.6-25.6h339.2c12.8 0 25.6 10.666667 25.6 25.6-2.133333 14.933333-12.8 25.6-27.733333 25.6zM420.266667 471.466667h-177.066667c-12.8 0-25.6-10.666667-25.6-25.6 0-12.8 10.666667-25.6 25.6-25.6h177.066667c12.8 0 25.6 10.666667 25.6 25.6-2.133333 14.933333-12.8 25.6-25.6 25.6z" p-id="4200"></path></svg>