<?xml version="1.0" standalone="no"?><!DOCTYPE svg PUBLIC "-//W3C//DTD SVG 1.1//EN" "http://www.w3.org/Graphics/SVG/1.1/DTD/svg11.dtd"><svg t="1551508352207" class="icon" style="" viewBox="0 0 1024 1024" version="1.1" xmlns="http://www.w3.org/2000/svg" p-id="1880" xmlns:xlink="http://www.w3.org/1999/xlink" width="200" height="200"><defs><style type="text/css"></style></defs><path d="M512.57344 1.39264C230.44096 1.39264 0.94208 230.56384 0.94208 512.32768c0 281.72288 229.49888 510.89408 511.63136 510.89408s511.63136-229.1712 511.63136-510.89408c0-281.76384-229.49888-510.93504-511.5904-510.93504zM548.864 939.6224a37.35552 37.35552 0 0 0 2.33472-11.55072v-36.16768a38.54336 38.54336 0 0 0-77.16864 0v36.16768c0 4.096 1.18784 7.82336 2.37568 11.55072a427.8272 427.8272 0 0 1-242.15552-100.9664c2.21184 0.4096 4.25984 1.26976 6.5536 1.26976 10.32192 0 20.0704-4.01408 27.40224-11.30496l271.81056-270.90944a38.912 38.912 0 0 0 11.18208-31.25248V277.2992a38.58432 38.58432 0 0 0-77.16864 0v236.78976L213.4016 773.9392a38.2976 38.2976 0 0 0-11.38688 27.36128c0 3.072 1.024 5.85728 1.72032 8.72448a427.2128 427.2128 0 0 1-119.11168-261.5296c3.6864 1.18784 7.45472 2.33472 11.55072 2.33472h36.20864c21.2992 0 38.58432-17.28512 38.58432-38.5024a38.58432 38.58432 0 0 0-38.58432-38.5024h-36.20864c-4.096 0-7.82336 1.10592-11.55072 2.29376 17.48992-207.79008 183.66464-373.67808 391.74144-391.168a37.35552 37.35552 0 0 0-2.37568 11.55072v36.16768a38.58432 38.58432 0 0 0 77.16864 0v-36.16768c0-4.096-1.14688-7.82336-2.33472-11.55072 208.0768 17.48992 374.21056 183.37792 391.70048 391.168a37.4784 37.4784 0 0 0-11.55072-2.33472h-36.20864a38.58432 38.58432 0 0 0-38.58432 38.5024c0 21.25824 17.32608 38.5024 38.58432 38.5024h36.20864c4.096 0 7.82336-1.10592 11.55072-2.29376-17.48992 207.79008-183.62368 373.67808-391.70048 391.168z" p-id="1881"></path></svg>