<?xml version="1.0" standalone="no"?><!DOCTYPE svg PUBLIC "-//W3C//DTD SVG 1.1//EN" "http://www.w3.org/Graphics/SVG/1.1/DTD/svg11.dtd"><svg t="1552958307118" class="icon" style="" viewBox="0 0 1732 1024" version="1.1" xmlns="http://www.w3.org/2000/svg" p-id="2572" xmlns:xlink="http://www.w3.org/1999/xlink" width="338.28125" height="200"><defs><style type="text/css"></style></defs><path d="M1110.646154 990.129231H123.746462A123.904 123.904 0 0 1 0 866.225231v-737.28C0 60.888615 55.532308 5.435077 123.746462 5.435077h986.742153c68.214154 0 123.746462 55.453538 123.746462 123.667692v737.28a123.667692 123.667692 0 0 1-123.588923 123.746462zM123.746462 75.933538a53.169231 53.169231 0 0 0-53.011693 53.090462v737.201231c0 29.144615 23.867077 53.011692 53.011693 53.011692h986.742153c29.144615 0 53.011692-23.867077 53.011693-53.011692v-737.28a53.169231 53.169231 0 0 0-53.011693-53.011693H123.746462z m1573.80923 914.038154a35.288615 35.288615 0 0 1-17.32923-4.568615l-367.852308-207.241846a35.209846 35.209846 0 0 1-17.959385-30.72V242.688c0-12.681846 6.852923-24.576 18.038154-30.72L1680.147692 4.726154a35.209846 35.209846 0 0 1 35.209846 0.315077c10.791385 6.301538 17.486769 18.116923 17.48677 30.562461v919.394462c0 12.603077-6.695385 24.182154-17.48677 30.562461a39.227077 39.227077 0 0 1-17.880615 4.411077z m-332.406154-263.246769l297.03877 167.384615V96.098462l-297.03877 167.463384v463.320616z" fill="" p-id="2573"></path></svg>
