<?xml version="1.0" standalone="no"?><!DOCTYPE svg PUBLIC "-//W3C//DTD SVG 1.1//EN" "http://www.w3.org/Graphics/SVG/1.1/DTD/svg11.dtd"><svg t="1551498001748" class="icon" style="" viewBox="0 0 1024 1024" version="1.1" xmlns="http://www.w3.org/2000/svg" p-id="1827" xmlns:xlink="http://www.w3.org/1999/xlink" width="200" height="200"><defs><style type="text/css"></style></defs><path d="M966.07793271 471.21548544l-125.40244019-118.37672207V179.58190363c0-36.80769298-28.76567603-66.67804165-64.0710142-66.67804168-35.30533817 0-64.0710142 29.91453559-64.07101417 66.67804168v54.88013766l-207.28077764-197.29453679a24.21442467 24.21442467 0 0 0-33.09599284 0L12.34774631 471.21548544c-7.33502645 6.76059667-9.54437177 19.70736023-6.00941927 28.94242367 3.66751323 9.14668961 12.54908141 17.58638873 22.44694844 17.5863887h137.3329049v281.42640648l-46.13113022 48.38466243a85.23654233 85.23654233 0 0 0 0 120.80700194c16.21659462 16.21659462 37.6914311 25.05397589 60.58024858 25.05397589s44.40784087-8.83738127 60.58024859-25.05397589l2.56284057-2.6954013h543.18963961a24.3911723 24.3911723 0 0 0 24.47954611-24.25861157V517.74429781h138.26082993c9.98624083 0 18.69106139-8.3513253 22.40276151-17.5863887 3.62332633-9.36762415 1.28142029-22.3143877-5.96523235-28.94242367zM209.02366643 935.04544127a39.98915024 39.98915024 0 0 1-55.7196889 0.04418691 39.98915024 39.98915024 0 0 1 0-56.73598773l227.69512835-227.2090724-7.82108241-23.15393891a138.92363353 138.92363353 0 0 1-3.88844776-75.16192768c5.74429781-25.58421877 17.49801491-46.6613731 36.14488938-65.35243447a139.18875497 139.18875497 0 0 1 98.2274928-40.69614075c-18.86780899 19.26549116-29.16335819 43.70085037-29.16335818 68.9757608 0 25.8051533 8.3955122 50.72656848 27.83775098 70.12462035 19.44223878 19.30967808 46.70556 28.76567603 72.4665264 28.76567603 25.27491043 0 48.60559698-10.33973609 67.60596669-28.85404983a136.53754059 136.53754059 0 0 1-137.86314776 137.28871798 141.39810029 141.39810029 0 0 1-44.76133613-7.37921335l-23.15393893-7.73270862-227.60675453 227.07651167zM778.90219744 464.72001022a24.12605086 24.12605086 0 0 0-24.25861157 24.12605086v423.70824487H294.61370399l154.25649004-151.56108873c18.02825779 5.65592402 36.71931917 8.48388603 55.63131506 8.483886a183.95009109 183.95009109 0 0 0 130.74905586-53.95221263 184.96638993 184.96638993 0 0 0 36.49838464-207.63427288l-3.84426085-8.3513253-6.14197998 6.89315739c-6.80478358 7.7327086-17.05614585 16.96777203-31.28432969 29.9145356-5.96523235 5.39080258-11.93046471 10.78160515-17.85151016 16.26078152-22.2702008 22.04926625-54.04058644 21.78414482-76.0456658 0a53.73127811 53.73127811 0 0 1-16.79102442-37.86817873c0-13.60956716 6.00941926-27.08657359 16.87939822-37.86817873 49.75445654-49.88701725 49.00327914-53.06847451 48.51722317-55.41038054l-0.66280361-2.96052273-2.65121436-1.19304647a186.82223999 186.82223999 0 0 0-77.90151589-17.05614585 183.41984821 183.41984821 0 0 0-130.61649513 53.95221264 183.81753037 183.81753037 0 0 0-45.64507424 186.02687568l-104.94390255 104.72296802 0.04418691-256.06312222c0-13.2560719-10.82579205-24.12605086-24.25861159-24.12605086H96.21449454l392.42391519-366.13270591 392.5564759 366.088519h-102.29268819z" p-id="1828"></path></svg>